<svg xmlns="http://www.w3.org/2000/svg" viewBox="0 0 512 512">
  <defs>
    <linearGradient id="bg" x1="0" y1="0" x2="1" y2="1">
      <stop offset="0%" stop-color="#1a1a2e"/>
      <stop offset="100%" stop-color="#16213e"/>
    </linearGradient>
    <linearGradient id="gold" x1="0" y1="0" x2="1" y2="1">
      <stop offset="0%" stop-color="#e8d48b"/>
      <stop offset="100%" stop-color="#c9a84c"/>
    </linearGradient>
  </defs>
  <rect width="512" height="512" rx="100" fill="url(#bg)"/>
  <circle cx="256" cy="220" r="90" fill="none" stroke="url(#gold)" stroke-width="3" opacity="0.4"/>
  <circle cx="256" cy="220" r="60" fill="none" stroke="url(#gold)" stroke-width="2" opacity="0.3"/>
  <circle cx="256" cy="220" r="12" fill="url(#gold)"/>
  <path d="M240 180 v80 a20 20 0 1 1 -8 -3 v-65 h40 v60 a20 20 0 1 1 -8 -3 v-50 h-24 v-19 z" fill="url(#gold)" opacity="0.9"/>
  <text x="256" y="370" text-anchor="middle" font-family="Georgia,serif" font-size="52" font-weight="300" letter-spacing="12" fill="#c9a84c">MOANA</text>
  <text x="256" y="400" text-anchor="middle" font-family="Arial,sans-serif" font-size="14" letter-spacing="6" fill="#a08030" opacity="0.7">SPA MUSIC</text>
  <path d="M160 440 Q200 420,256 440 Q312 460,352 440" fill="none" stroke="#c9a84c" stroke-width="1.5" opacity="0.3"/>
  <path d="M180 455 Q220 440,256 455 Q292 470,332 455" fill="none" stroke="#c9a84c" stroke-width="1" opacity="0.2"/>
</svg>
